<svg width="33" height="37" viewBox="0 0 33 37" fill="none" xmlns="http://www.w3.org/2000/svg">
<path d="M31.5214 19.8705C29.3845 28.442 20.7029 33.6584 12.1304 31.521C3.56144 29.3841 -1.65502 20.702 0.482839 12.1312C2.61882 3.5587 11.3004 -1.65814 19.8702 0.478775C28.4422 2.61569 33.6583 11.2987 31.5211 19.8706L31.5213 19.8705H31.5214Z" fill="#F7931A"/>
<path fill-rule="evenodd" clip-rule="evenodd" d="M23.0572 13.7204C23.3757 11.5912 21.7546 10.4466 19.5379 9.68311L20.257 6.79886L18.5013 6.36137L17.8013 9.16969C17.3397 9.05457 16.8657 8.94609 16.3946 8.83856L17.0997 6.01171L15.345 5.57422L14.6255 8.45754C14.2436 8.37057 13.8684 8.28462 13.5044 8.19406L13.5065 8.18499L11.0853 7.58037L10.6182 9.45561C10.6182 9.45561 11.9208 9.7542 11.8934 9.77258C12.6044 9.95003 12.7329 10.4207 12.7116 10.7937L11.8924 14.0796C11.9414 14.092 12.0049 14.11 12.075 14.1381L12.024 14.1254C11.9807 14.1146 11.9356 14.1033 11.8894 14.0922L10.7412 18.6952C10.6544 18.9113 10.4338 19.2354 9.93673 19.1123C9.95432 19.1378 8.66063 18.7939 8.66063 18.7939L7.78894 20.8036L10.0737 21.3732C10.3239 21.4359 10.5712 21.5004 10.8159 21.5642C10.987 21.6088 11.1568 21.653 11.3255 21.6962L10.599 24.6135L12.3527 25.051L13.0722 22.1646C13.5513 22.2947 14.0162 22.4147 14.4714 22.5278L13.7543 25.4005L15.5101 25.838L16.2366 22.9261C19.2305 23.4927 21.4817 23.2643 22.4292 20.5563C23.1927 18.3761 22.3912 17.1185 20.8161 16.2984C21.9633 16.0339 22.8274 15.2793 23.0578 13.7207L23.0573 13.7203L23.0572 13.7204ZM19.0458 19.3455C18.5479 21.3458 15.4169 20.5189 13.9844 20.1405C13.8555 20.1065 13.7404 20.076 13.6422 20.0517L14.6063 16.1867C14.726 16.2166 14.8723 16.2494 15.038 16.2866L15.038 16.2866C16.5198 16.6191 19.5558 17.3005 19.0458 19.3455H19.0458ZM15.3352 14.4928C16.5296 14.8115 19.135 15.5069 19.5887 13.6889H19.5889C20.0522 11.8295 17.5202 11.2689 16.2836 10.9951C16.1444 10.9643 16.0217 10.9371 15.9215 10.9121L15.0474 14.4174C15.1299 14.438 15.2267 14.4638 15.3352 14.4928Z" fill="white"/>
<rect x="18.5" y="22.5" width="13.4" height="13.4" rx="6.7" fill="#262932"/>
<rect x="18.5" y="22.5" width="13.4" height="13.4" rx="6.7" stroke="#20252B"/>
<path d="M28.7521 28.9721C28.7235 28.8985 28.6807 28.8312 28.6261 28.7741L25.6261 25.7741C25.5702 25.7182 25.5037 25.6738 25.4306 25.6435C25.3576 25.6132 25.2792 25.5977 25.2001 25.5977C25.0403 25.5977 24.8871 25.6611 24.7741 25.7741C24.7182 25.8301 24.6738 25.8965 24.6435 25.9696C24.6132 26.0427 24.5976 26.121 24.5976 26.2001C24.5976 26.3599 24.6611 26.5131 24.7741 26.6261L26.7541 28.6001H22.2001C22.041 28.6001 21.8884 28.6633 21.7758 28.7758C21.6633 28.8884 21.6001 29.041 21.6001 29.2001C21.6001 29.3592 21.6633 29.5119 21.7758 29.6244C21.8884 29.7369 22.041 29.8001 22.2001 29.8001H26.7541L24.7741 31.7741C24.7179 31.8299 24.6732 31.8962 24.6428 31.9694C24.6123 32.0425 24.5966 32.1209 24.5966 32.2001C24.5966 32.2793 24.6123 32.3577 24.6428 32.4309C24.6732 32.504 24.7179 32.5703 24.7741 32.6261C24.8299 32.6823 24.8962 32.727 24.9694 32.7574C25.0425 32.7879 25.1209 32.8036 25.2001 32.8036C25.2793 32.8036 25.3577 32.7879 25.4308 32.7574C25.504 32.727 25.5703 32.6823 25.6261 32.6261L28.6261 29.6261C28.6807 29.569 28.7235 29.5018 28.7521 29.4281C28.8121 29.282 28.8121 29.1182 28.7521 28.9721Z" fill="#F04438"/>
</svg>
