<svg width="14" height="12" viewBox="0 0 14 12" fill="none" xmlns="http://www.w3.org/2000/svg">
<path d="M12.24 9.728H1.392C0.62464 9.728 0 9.10336 0 8.336V1.392C0 0.62464 0.62464 0 1.392 0H12.24C13.0074 0 13.632 0.62464 13.632 1.392V8.336C13.632 9.10336 13.0074 9.728 12.24 9.728ZM1.392 0.32C0.80064 0.32 0.32 0.80064 0.32 1.392V8.336C0.32 8.92736 0.80064 9.408 1.392 9.408H12.24C12.8314 9.408 13.312 8.92736 13.312 8.336V1.392C13.312 0.80064 12.8314 0.32 12.24 0.32H1.392Z" fill="white"/>
<path d="M13.472 7.7824H0.16C0.07168 7.7824 0 7.71072 0 7.6224C0 7.53408 0.07168 7.4624 0.16 7.4624H13.472C13.5603 7.4624 13.632 7.53408 13.632 7.6224C13.632 7.71072 13.5603 7.7824 13.472 7.7824Z" fill="white"/>
<path d="M11.3728 11.1039H2.68802C2.5997 11.1039 2.52802 11.0323 2.52802 10.9439C2.52802 10.8556 2.5997 10.7839 2.68802 10.7839H11.3728C11.4611 10.7839 11.5328 10.8556 11.5328 10.9439C11.5328 11.0323 11.4611 11.1039 11.3728 11.1039Z" fill="white"/>
<path d="M3.84511 11.1039C3.82015 11.1039 3.79519 11.0982 3.77215 11.086C3.69343 11.0457 3.66271 10.949 3.70303 10.8703L4.41343 9.49432C4.45375 9.4156 4.55039 9.38488 4.62911 9.4252C4.70783 9.46552 4.73855 9.56216 4.69823 9.64088L3.98783 11.0169C3.95903 11.0726 3.90335 11.1039 3.84511 11.1039Z" fill="white"/>
<path d="M9.80353 11.104C9.74529 11.104 9.68961 11.0727 9.66145 11.0176L8.95105 9.64161C8.91073 9.56289 8.94145 9.46625 9.02017 9.42593C9.09889 9.38561 9.19489 9.41633 9.23585 9.49505L9.94625 10.8711C9.98657 10.9498 9.95585 11.0464 9.87713 11.0867C9.85345 11.0983 9.82849 11.104 9.80353 11.104Z" fill="white"/>
<path d="M3.26399 5.12003C2.20543 5.12003 1.34399 4.25859 1.34399 3.20003C1.34399 2.14147 2.20543 1.28003 3.26399 1.28003C4.32255 1.28003 5.18399 2.14147 5.18399 3.20003C5.18399 4.25859 4.32255 5.12003 3.26399 5.12003ZM3.26399 1.60003C2.38143 1.60003 1.66399 2.31747 1.66399 3.20003C1.66399 4.08259 2.38143 4.80003 3.26399 4.80003C4.14655 4.80003 4.86399 4.08259 4.86399 3.20003C4.86399 2.31747 4.14655 1.60003 3.26399 1.60003Z" fill="white"/>
<path d="M2.20223 4.76355C2.16255 4.76355 2.12287 4.74883 2.09215 4.71939C2.02815 4.65859 2.02559 4.55747 2.08639 4.49347L3.10399 3.42083V1.44003C3.10399 1.35171 3.17567 1.28003 3.26399 1.28003C3.35231 1.28003 3.42399 1.35171 3.42399 1.44003V3.54819L2.31807 4.71363C2.28671 4.74691 2.24447 4.76355 2.20223 4.76355Z" fill="white"/>
<path d="M5.664 6.87884H1.216C1.12768 6.87884 1.056 6.80716 1.056 6.71884C1.056 6.63052 1.12768 6.55884 1.216 6.55884H5.664C5.75232 6.55884 5.824 6.63052 5.824 6.71884C5.824 6.80716 5.75232 6.87884 5.664 6.87884Z" fill="white"/>
<path d="M12.64 5.81887H6.59201V1.50399C6.59201 1.41567 6.66369 1.34399 6.75201 1.34399C6.84033 1.34399 6.91201 1.41567 6.91201 1.50399V5.49887H12.64C12.7283 5.49887 12.8 5.57055 12.8 5.65887C12.8 5.74719 12.7283 5.81887 12.64 5.81887Z" fill="white"/>
<path d="M8.38401 5.81891C8.29569 5.81891 8.22401 5.74723 8.22401 5.65891V4.70403H7.52001V5.65891C7.52001 5.74723 7.44833 5.81891 7.36001 5.81891C7.27169 5.81891 7.20001 5.74723 7.20001 5.65891V4.54403C7.20001 4.45571 7.27169 4.38403 7.36001 4.38403H8.38401C8.47233 4.38403 8.54401 4.45571 8.54401 4.54403V5.65891C8.54401 5.74723 8.47233 5.81891 8.38401 5.81891Z" fill="white"/>
<path d="M10.112 5.8189C10.0237 5.8189 9.95201 5.74722 9.95201 5.6589V3.84002H9.24801V5.6589C9.24801 5.74722 9.17633 5.8189 9.08801 5.8189C8.99969 5.8189 8.92801 5.74722 8.92801 5.6589V3.68002C8.92801 3.5917 8.99969 3.52002 9.08801 3.52002H10.112C10.2003 3.52002 10.272 3.5917 10.272 3.68002V5.6589C10.272 5.74722 10.2003 5.8189 10.112 5.8189Z" fill="white"/>
<path d="M11.84 5.8189C11.7517 5.8189 11.68 5.74722 11.68 5.6589V3.39202H10.976V5.6589C10.976 5.74722 10.9043 5.8189 10.816 5.8189C10.7277 5.8189 10.656 5.74722 10.656 5.6589V3.23202C10.656 3.1437 10.7277 3.07202 10.816 3.07202H11.84C11.9283 3.07202 12 3.1437 12 3.23202V5.6589C12 5.74722 11.9283 5.8189 11.84 5.8189Z" fill="white"/>
<path d="M3.00289 5.98406H1.24801C1.15969 5.98406 1.08801 5.91238 1.08801 5.82406C1.08801 5.73574 1.15969 5.66406 1.24801 5.66406H3.00289C3.09121 5.66406 3.16289 5.73574 3.16289 5.82406C3.16289 5.91238 3.09121 5.98406 3.00289 5.98406Z" fill="white"/>
</svg>
