<svg width="16" height="20" viewBox="0 0 16 20" fill="none" xmlns="http://www.w3.org/2000/svg">
<path d="M6.92395 14.3667H6.39758V7.08936L5.56165 7.84521L4.34485 8.9458L4.01184 8.64404L6.92395 6.01123V14.3667Z" fill="#A7B1BC" stroke="#A7B1BC"/>
<path d="M9.59985 5.63574V12.9141L10.4358 12.1572L11.6506 11.0566L11.9827 11.3574L9.07349 13.9902V5.63574H9.59985Z" fill="#A7B1BC" stroke="#A7B1BC"/>
<path d="M16 1.38136V18.6212H14.4765V1.38136H1.52354V18.6212H14.4765V20H0V1.38136C-7.06314e-07 1.01545 0.160423 0.664483 0.44606 0.405502C0.731697 0.146522 1.11921 0.000683948 1.52354 0H14.4765C14.8808 0.000683948 15.2683 0.146522 15.5539 0.405502C15.8396 0.664483 16 1.01545 16 1.38136Z" fill="#A7B1BC"/>
</svg>
