<svg width="18" height="18" viewBox="0 0 18 18" fill="none" xmlns="http://www.w3.org/2000/svg">
<g clip-path="url(#clip0_4_3067)">
<path d="M15.7351 14.0402L14.4751 12.5402V7.08768C14.4751 5.62518 13.9051 4.25268 12.8701 3.21768C12.3901 2.73768 11.8426 2.36268 11.2276 2.08518C11.1601 0.915176 10.1851 -0.00732422 9.00011 -0.00732422C7.81511 -0.00732422 6.84011 0.922676 6.77261 2.08518C5.86511 2.49018 5.09261 3.12768 4.51511 3.94518C3.87011 4.86768 3.52511 5.95518 3.52511 7.08017V12.5327L2.26511 14.0327C2.06261 14.2727 2.01761 14.6027 2.15261 14.8877C2.28761 15.1727 2.56511 15.3527 2.88011 15.3527H5.78261C6.07511 16.8677 7.42511 18.0077 9.00011 18.0077C10.5751 18.0077 11.9251 16.8677 12.2176 15.3527H15.1201C15.4351 15.3527 15.7126 15.1727 15.8476 14.8877C15.9826 14.6027 15.9376 14.2727 15.7351 14.0327V14.0402ZM9.00011 0.840176C9.60761 0.840176 10.1176 1.23018 10.3126 1.77018C9.88511 1.66518 9.45011 1.61268 9.00011 1.61268C8.55011 1.61268 8.11511 1.66518 7.68761 1.77018C7.87511 1.23018 8.39261 0.840176 9.00011 0.840176ZM6.65261 14.5127V15.3602H11.3551C11.0776 16.4027 10.1176 17.1677 9.00761 17.1677C7.89761 17.1677 6.93761 16.4027 6.66011 15.3602H5.81261V14.5127H2.99261L4.38761 12.8552V7.08768C4.38761 5.18268 5.58011 3.44268 7.36511 2.76768C7.89011 2.56518 8.44511 2.46768 9.01511 2.46768C9.58511 2.46768 10.1401 2.57268 10.6651 2.76768C11.2726 3.00018 11.8201 3.35268 12.2851 3.81768C13.1626 4.69518 13.6426 5.85768 13.6426 7.08768V12.8552L15.0376 14.5127H6.66761H6.65261Z" fill="white"/>
</g>
<defs>
<clipPath id="clip0_4_3067">
<rect width="18" height="18" fill="white"/>
</clipPath>
</defs>
</svg>
