<svg width="11" height="9" viewBox="0 0 11 9" fill="none" xmlns="http://www.w3.org/2000/svg">
<path d="M5.65 4.36C5.91679 4.12907 6.13078 3.84344 6.27744 3.52251C6.4241 3.20158 6.5 2.85285 6.5 2.5C6.5 1.83696 6.23661 1.20107 5.76777 0.732233C5.29893 0.263392 4.66304 8.94555e-08 4 8.94555e-08C3.33696 8.94555e-08 2.70107 0.263392 2.23223 0.732233C1.76339 1.20107 1.5 1.83696 1.5 2.5C1.5 2.85285 1.5759 3.20158 1.72256 3.52251C1.86922 3.84344 2.08321 4.12907 2.35 4.36C1.65007 4.67694 1.05623 5.18876 0.63949 5.83427C0.222748 6.47978 0.000735927 7.23166 0 8C0 8.13261 0.0526784 8.25979 0.146447 8.35355C0.240215 8.44732 0.367392 8.5 0.5 8.5C0.632608 8.5 0.759785 8.44732 0.853553 8.35355C0.947322 8.25979 1 8.13261 1 8C1 7.20435 1.31607 6.44129 1.87868 5.87868C2.44129 5.31607 3.20435 5 4 5C4.79565 5 5.55871 5.31607 6.12132 5.87868C6.68393 6.44129 7 7.20435 7 8C7 8.13261 7.05268 8.25979 7.14645 8.35355C7.24021 8.44732 7.36739 8.5 7.5 8.5C7.63261 8.5 7.75979 8.44732 7.85355 8.35355C7.94732 8.25979 8 8.13261 8 8C7.99926 7.23166 7.77725 6.47978 7.36051 5.83427C6.94377 5.18876 6.34993 4.67694 5.65 4.36ZM4 4C3.70333 4 3.41332 3.91203 3.16664 3.7472C2.91997 3.58238 2.72771 3.34811 2.61418 3.07403C2.50065 2.79994 2.47094 2.49834 2.52882 2.20736C2.5867 1.91639 2.72956 1.64912 2.93934 1.43934C3.14912 1.22956 3.41639 1.0867 3.70736 1.02882C3.99834 0.970944 4.29994 1.00065 4.57403 1.11418C4.84811 1.22771 5.08238 1.41997 5.2472 1.66664C5.41203 1.91332 5.5 2.20333 5.5 2.5C5.5 2.89782 5.34196 3.27936 5.06066 3.56066C4.77936 3.84196 4.39782 4 4 4ZM8.87 4.16C9.18998 3.79966 9.399 3.35453 9.4719 2.87817C9.5448 2.40181 9.47846 1.91454 9.28088 1.475C9.0833 1.03546 8.7629 0.662398 8.35824 0.400711C7.95357 0.139025 7.4819 -0.0001288 7 8.94555e-08C6.86739 8.94555e-08 6.74021 0.0526785 6.64645 0.146447C6.55268 0.240215 6.5 0.367392 6.5 0.5C6.5 0.632608 6.55268 0.759785 6.64645 0.853553C6.74021 0.947322 6.86739 1 7 1C7.39782 1 7.77936 1.15804 8.06066 1.43934C8.34196 1.72064 8.5 2.10218 8.5 2.5C8.49929 2.76262 8.42965 3.02045 8.29803 3.24771C8.16641 3.47497 7.97744 3.66369 7.75 3.795C7.67587 3.83776 7.61395 3.89883 7.57018 3.97237C7.52641 4.04591 7.50224 4.12945 7.5 4.215C7.49791 4.29988 7.51747 4.3839 7.55683 4.45913C7.5962 4.53436 7.65407 4.59833 7.725 4.645L7.92 4.775L7.985 4.81C8.5877 5.09586 9.09616 5.548 9.45049 6.11316C9.80482 6.67832 9.99027 7.33297 9.985 8C9.985 8.13261 10.0377 8.25979 10.1314 8.35355C10.2252 8.44732 10.3524 8.5 10.485 8.5C10.6176 8.5 10.7448 8.44732 10.8386 8.35355C10.9323 8.25979 10.985 8.13261 10.985 8C10.9891 7.23271 10.7969 6.47713 10.4267 5.80503C10.0566 5.13294 9.52067 4.56666 8.87 4.16Z" fill="#85D1F0"/>
</svg>
