<svg width="14" height="12" viewBox="0 0 14 12" fill="none" xmlns="http://www.w3.org/2000/svg">
<path d="M12.24 10.208H1.392C0.62464 10.208 0 9.58336 0 8.816V1.392C0 0.62464 0.62464 0 1.392 0H12.24C13.0074 0 13.632 0.62464 13.632 1.392V8.816C13.632 9.58336 13.0074 10.208 12.24 10.208ZM1.392 0.32C0.80064 0.32 0.32 0.80064 0.32 1.392V8.816C0.32 9.40736 0.80064 9.888 1.392 9.888H12.24C12.8314 9.888 13.312 9.40736 13.312 8.816V1.392C13.312 0.80064 12.8314 0.32 12.24 0.32H1.392Z" fill="white"/>
<path d="M13.472 8.51849H0.16C0.07168 8.51849 0 8.44681 0 8.35849C0 8.27017 0.07168 8.19849 0.16 8.19849H13.472C13.5603 8.19849 13.632 8.27017 13.632 8.35849C13.632 8.44681 13.5603 8.51849 13.472 8.51849Z" fill="white"/>
<path d="M11.3728 11.5839H2.68802C2.5997 11.5839 2.52802 11.5122 2.52802 11.4239C2.52802 11.3356 2.5997 11.2639 2.68802 11.2639H11.3728C11.4611 11.2639 11.5328 11.3356 11.5328 11.4239C11.5328 11.5122 11.4611 11.5839 11.3728 11.5839Z" fill="white"/>
<path d="M3.84511 11.5839C3.82015 11.5839 3.79519 11.5781 3.77215 11.566C3.69343 11.5257 3.66271 11.429 3.70303 11.3503L4.41343 9.9743C4.45375 9.89558 4.55039 9.86486 4.62911 9.90518C4.70783 9.9455 4.73855 10.0421 4.69823 10.1209L3.98783 11.4969C3.95903 11.5525 3.90335 11.5839 3.84511 11.5839Z" fill="white"/>
<path d="M9.8035 11.584C9.74526 11.584 9.68958 11.5526 9.66142 11.4976L8.95102 10.1216C8.9107 10.0429 8.94142 9.94623 9.02014 9.90591C9.09886 9.86559 9.19486 9.89631 9.23582 9.97503L9.94622 11.351C9.98654 11.4298 9.95582 11.5264 9.8771 11.5667C9.85342 11.5782 9.82846 11.584 9.8035 11.584Z" fill="white"/>
<path d="M3.32799 5.00362H2.17599C2.08767 5.00362 2.01599 4.93194 2.01599 4.84362V2.59018C2.01599 2.50186 2.08767 2.43018 2.17599 2.43018H3.32799C3.41631 2.43018 3.48799 2.50186 3.48799 2.59018V4.84362C3.48799 4.93194 3.41631 5.00362 3.32799 5.00362ZM2.33599 4.68361H3.16799V2.75018H2.33599V4.68361Z" fill="white"/>
<path d="M2.75198 5.79207C2.66366 5.79207 2.59198 5.72039 2.59198 5.63207V4.84359C2.59198 4.75527 2.66366 4.68359 2.75198 4.68359C2.8403 4.68359 2.91198 4.75527 2.91198 4.84359V5.63207C2.91198 5.72039 2.8403 5.79207 2.75198 5.79207Z" fill="white"/>
<path d="M2.75198 2.77254C2.66366 2.77254 2.59198 2.70086 2.59198 2.61254V1.82406C2.59198 1.73574 2.66366 1.66406 2.75198 1.66406C2.8403 1.66406 2.91198 1.73574 2.91198 1.82406V2.61254C2.91198 2.70086 2.8403 2.77254 2.75198 2.77254Z" fill="white"/>
<path d="M5.95201 6.30737H4.80001C4.71169 6.30737 4.64001 6.23569 4.64001 6.14737V3.23153C4.64001 3.14321 4.71169 3.07153 4.80001 3.07153H5.95201C6.04033 3.07153 6.11201 3.14321 6.11201 3.23153V6.14737C6.11201 6.23569 6.04033 6.30737 5.95201 6.30737ZM4.96001 5.98737H5.79201V3.39153H4.96001V5.98737Z" fill="white"/>
<path d="M5.376 7.3281C5.28768 7.3281 5.216 7.25642 5.216 7.1681V6.1473C5.216 6.05898 5.28768 5.9873 5.376 5.9873C5.46432 5.9873 5.536 6.05898 5.536 6.1473V7.1681C5.536 7.25642 5.46432 7.3281 5.376 7.3281Z" fill="white"/>
<path d="M5.376 3.42088C5.28768 3.42088 5.216 3.3492 5.216 3.26088V2.24008C5.216 2.15176 5.28768 2.08008 5.376 2.08008C5.46432 2.08008 5.536 2.15176 5.536 2.24008V3.26088C5.536 3.3492 5.46432 3.42088 5.376 3.42088Z" fill="white"/>
<path d="M8.64 5.34741H7.488C7.39968 5.34741 7.328 5.27573 7.328 5.18741V2.27157C7.328 2.18325 7.39968 2.11157 7.488 2.11157H8.64C8.72832 2.11157 8.8 2.18325 8.8 2.27157V5.18741C8.8 5.27573 8.72832 5.34741 8.64 5.34741ZM7.648 5.02741H8.48V2.43157H7.648V5.02741Z" fill="white"/>
<path d="M8.06399 6.36814C7.97567 6.36814 7.90399 6.29646 7.90399 6.20814V5.18734C7.90399 5.09902 7.97567 5.02734 8.06399 5.02734C8.15231 5.02734 8.22399 5.09902 8.22399 5.18734V6.20814C8.22399 6.29646 8.15231 6.36814 8.06399 6.36814Z" fill="white"/>
<path d="M8.06399 2.46092C7.97567 2.46092 7.90399 2.38924 7.90399 2.30092V1.28012C7.90399 1.1918 7.97567 1.12012 8.06399 1.12012C8.15231 1.12012 8.22399 1.1918 8.22399 1.28012V2.30092C8.22399 2.38924 8.15231 2.46092 8.06399 2.46092Z" fill="white"/>
<path d="M11.392 6.8833H10.24C10.1517 6.8833 10.08 6.81162 10.08 6.7233V3.80746C10.08 3.71914 10.1517 3.64746 10.24 3.64746H11.392C11.4803 3.64746 11.552 3.71914 11.552 3.80746V6.7233C11.552 6.81162 11.4803 6.8833 11.392 6.8833ZM10.4 6.5633H11.232V3.96746H10.4V6.5633Z" fill="white"/>
<path d="M10.816 7.90403C10.7277 7.90403 10.656 7.83235 10.656 7.74403V6.72323C10.656 6.63491 10.7277 6.56323 10.816 6.56323C10.9043 6.56323 10.976 6.63491 10.976 6.72323V7.74403C10.976 7.83235 10.9043 7.90403 10.816 7.90403Z" fill="white"/>
<path d="M10.816 3.99681C10.7277 3.99681 10.656 3.92513 10.656 3.83681V2.81601C10.656 2.72769 10.7277 2.65601 10.816 2.65601C10.9043 2.65601 10.976 2.72769 10.976 2.81601V3.83681C10.976 3.92513 10.9043 3.99681 10.816 3.99681Z" fill="white"/>
</svg>
