<svg width="14" height="7" viewBox="0 0 14 7" fill="none" xmlns="http://www.w3.org/2000/svg">
<path d="M13.1439 0.197199C13.0819 0.134713 13.0082 0.0851172 12.9269 0.0512714C12.8457 0.0174257 12.7585 0 12.6705 0C12.5825 0 12.4954 0.0174257 12.4141 0.0512714C12.3329 0.0851172 12.2592 0.134713 12.1972 0.197199L8.00387 4.3972L5.14387 1.53053C5.08189 1.46805 5.00816 1.41845 4.92692 1.3846C4.84568 1.35076 4.75854 1.33333 4.67053 1.33333C4.58252 1.33333 4.49539 1.35076 4.41415 1.3846C4.33291 1.41845 4.25917 1.46805 4.1972 1.53053L0.197199 5.53053C0.134713 5.59251 0.0851171 5.66624 0.0512713 5.74748C0.0174255 5.82872 0 5.91586 0 6.00387C0 6.09187 0.0174255 6.17901 0.0512713 6.26025C0.0851171 6.34149 0.134713 6.41522 0.197199 6.4772C0.259174 6.53968 0.332908 6.58928 0.414148 6.62313C0.495387 6.65697 0.582524 6.6744 0.670532 6.6744C0.75854 6.6744 0.845677 6.65697 0.926917 6.62313C1.00816 6.58928 1.08189 6.53968 1.14387 6.4772L4.67053 2.94387L7.53053 5.81053C7.59251 5.87302 7.66624 5.92261 7.74748 5.95646C7.82872 5.99031 7.91586 6.00773 8.00387 6.00773C8.09187 6.00773 8.17901 5.99031 8.26025 5.95646C8.34149 5.92261 8.41522 5.87302 8.4772 5.81053L13.1439 1.14387C13.2064 1.08189 13.2559 1.00816 13.2898 0.926917C13.3236 0.845677 13.3411 0.75854 13.3411 0.670532C13.3411 0.582524 13.3236 0.495387 13.2898 0.414148C13.2559 0.332908 13.2064 0.259174 13.1439 0.197199Z" fill="#F79009"/>
</svg>
